<svg aria-hidden="true" style="position:absolute;width:0;height:0;overflow:hidden" xmlns="http://www.w3.org/2000/svg">
  <defs>
    
    <symbol id="icon--phone" viewBox="0 0 32 32">
      <path d="M13.867 14.4c.267.667.933 1.467 1.6 2.133s1.467 1.333 2.133 1.6c.267.133.4.133.533.133l.667-.667c.4-.4.667-.667 1.067-.933.8-.533 1.6-.667 2.4 0 2 1.467 3.067 2.267 3.733 2.933 1.2 1.2 1.067 3.2 0 4.267-.267.4-.8.8-1.2 1.2-3.067 3.067-9.333 1.2-14.267-3.6-4.8-4.8-6.667-11.2-3.6-14.267.4-.4.667-.533 1.067-1.067 1.067-1.067 3.067-1.2 4.267 0 .533.533 1.467 1.733 2.933 3.733.667.8.533 1.733-.133 2.533-.133.133-.267.4-.533.533l-.267.267-.667.667c.133.133.133.267.267.533zm6.8 5.2l-.8.8c-1.467 1.467-4 .267-6.267-2s-3.467-4.667-2-6.267c.4-.267.4-.267.8-.8l.267-.267.133-.133c-1.2-1.467-2-2.4-2.4-2.8a.406.406 0 00-.533 0c-.4.4-.667.667-1.2 1.067-1.733 1.733-.4 6.533 3.6 10.4 3.867 3.867 8.667 5.333 10.4 3.6.533-.4.8-.8 1.2-1.2a.406.406 0 000-.533c-.4-.4-1.333-1.067-2.933-2.267 0 .133-.133.267-.267.4z"/>
    </symbol>
    
    <symbol id="icon--x" viewBox="0 0 32 32">
      <path d="M16 17.867L10.267 23.6 8.4 21.733 14.133 16 8.4 10.267 10.267 8.4 16 14.133 21.733 8.4l1.867 1.867L17.867 16l5.733 5.733-1.867 1.867z"/>
    </symbol>
  </defs>
</svg>
