<svg aria-hidden="true" style="position:absolute;width:0;height:0;overflow:hidden" xmlns="http://www.w3.org/2000/svg">
  <defs>
    <symbol id="icon--phone" viewBox="0 0 181.352 181.352">
        <path d="M169.393 167.37l-14.919 9.848c-9.604 6.614-50.531 14.049-106.211-53.404C-5.415 58.873 9.934 22.86 17.134 14.555L29.523 1.678c2.921-2.491 7.328-2.198 9.839.811l32.583 38.543.02.02c2.384 2.824 2.306 7.22-.83 9.868v.029l-14.44 10.415c-5.716 5.667-.733 14.587 5.11 23.204l27.786 32.808c12.926 12.477 20.009 18.241 26.194 14.118l12.008-13.395c2.941-2.472 7.328-2.169 9.839.821l32.603 38.543v.02c2.372 2.833 2.284 7.22-.842 9.887z"/>
    </symbol>
    
    <symbol id="icon--x" viewBox="0 0 32 32">
        <path d="M16 17.867L10.267 23.6 8.4 21.733 14.133 16 8.4 10.267 10.267 8.4 16 14.133 21.733 8.4l1.867 1.867L17.867 16l5.733 5.733-1.867 1.867z"/>
    </symbol>

    <symbol id="icon--plus" viewBox="0 0 32 32">
        <path d="M17.333 14.667h6.667v2.667h-6.667v6.667h-2.667v-6.667h-6.667v-2.667h6.667v-6.667h2.667z"></path>
    </symbol>

    <symbol id="icon--user" viewBox="0 0 32 32">
        <path d="M8 24.933c2.133 1.867 4.933 3.067 8 3.067s5.867-1.2 8-3.067c-0.4-1.467-3.2-2.267-8-2.267s-7.6 0.933-8 2.267zM6.133 22.8c1.467-2 5.067-2.8 9.867-2.8s8.4 0.8 9.867 2.8c1.333-2 2.133-4.267 2.133-6.8 0-6.667-5.333-12-12-12s-12 5.333-12 12c0 2.533 0.8 4.933 2.133 6.8zM16 30.667c-8.133 0-14.667-6.533-14.667-14.667s6.533-14.667 14.667-14.667 14.667 6.533 14.667 14.667-6.533 14.667-14.667 14.667zM10.667 13.333c0-2.933 2.133-5.333 5.333-5.333s5.333 2.533 5.333 5.6c0 4.4-2.4 6.4-5.333 6.4s-5.333-2.133-5.333-6.667zM13.333 13.333c0 3.067 1.067 4 2.667 4s2.667-0.933 2.667-3.733c0-1.6-1.067-2.933-2.667-2.933-1.733 0-2.667 1.067-2.667 2.667z"></path>
    </symbol>

    <symbol id="icon--x" viewBox="0 0 32 32">
        <path d="M16 17.867l-5.733 5.733-1.867-1.867 5.733-5.733-5.733-5.733 1.867-1.867 5.733 5.733 5.733-5.733 1.867 1.867-5.733 5.733 5.733 5.733-1.867 1.867z"></path>
    </symbol>

    <symbol id="icon--chevron-bottom" viewBox="0 0 32 32">
        <path d="M23.067 11.067l1.867 1.867-8.933 8.933-8.933-8.933 1.867-1.867 7.067 7.067z"></path>
    </symbol>

    <symbol id="icon--floppy" viewBox="0 0 32 32">
        <path d="M5.333 2.667h19.2l4.8 4.933v19.067c0 1.467-1.2 2.667-2.667 2.667h-21.333c-1.467 0-2.667-1.2-2.667-2.667v-21.333c0-1.467 1.2-2.667 2.667-2.667zM22.667 5.333v8h-13.333v-8h-4v21.333h2.667v-10.667h16v10.667h2.667v-18l-3.2-3.333h-0.8zM12 5.333v5.333h8v-5.333h-8zM10.667 18.667v8h10.667v-8h-10.667zM16 6.667h2.667v2.667h-2.667v-2.667z"></path>
    </symbol>
    
    <symbol id="icon--trash" viewBox="0 0 32 32">
        <path d="M9.333 5.333v-1.333c0-1.467 1.2-2.667 2.667-2.667h8c1.467 0 2.667 1.2 2.667 2.667v1.333h4c1.467 0 2.667 1.2 2.667 2.667v2.667c0 1.467-1.2 2.667-2.667 2.667h-0.133l-1.2 14.667c0 1.467-1.2 2.667-2.667 2.667h-13.333c-1.467 0-2.667-1.2-2.667-2.533l-1.2-14.8h-0.133c-1.467 0-2.667-1.2-2.667-2.667v-2.667c0-1.467 1.2-2.667 2.667-2.667h4zM9.333 8h-4v2.667h21.333v-2.667h-17.333zM8.133 13.333l1.2 14.667h13.333v-0.133l1.2-14.533h-15.733zM20 5.333v-1.333h-8v1.333h8z"></path>
    </symbol>

    <symbol id="icon--pencil" viewBox="0 0 32 32">
        <path d="M15.733 13.6l-5.867 5.867c-0.267 0.267-0.533 0.667-0.533 0.8v2.4h2.267c0.4 0 0.667-0.133 0.933-0.533l5.867-5.867-2.667-2.667zM17.6 11.733l2.667 2.667 2.4-2.4-2.667-2.667-2.4 2.4zM20 6.667c0.667 0 1.333 0.267 1.867 0.8l2.8 2.8c0.4 0.4 0.667 1.067 0.667 1.733s-0.267 1.467-0.8 1.867l-10 10.133c-0.667 0.8-1.733 1.333-2.8 1.333h-5.067v-5.067c0.133-1.067 0.533-2 1.333-2.667l10.133-10.133c0.4-0.533 1.2-0.8 1.867-0.8z"></path>
    </symbol>

    <symbol id="icon--check-mark" viewBox="0 0 32 32">
        <path d="M12.933 19.067l12.4-12.4 1.867 1.867-14.267 14.267-7.6-7.6 1.867-1.867z"></path>
    </symbol>

  </defs>
</svg>
